<?xml version="1.0" encoding="UTF-8" standalone="no"?><!DOCTYPE svg PUBLIC "-//W3C//DTD SVG 1.1//EN" "http://www.w3.org/Graphics/SVG/1.1/DTD/svg11.dtd"><svg width="100%" height="100%" viewBox="0 0 161 29" version="1.1" xmlns="http://www.w3.org/2000/svg" xmlns:xlink="http://www.w3.org/1999/xlink" xml:space="preserve" xmlns:serif="http://www.serif.com/" style="fill-rule:evenodd;clip-rule:evenodd;stroke-linejoin:round;stroke-miterlimit:2;"><g id="图层-3" serif:id="图层 3"><path d="M46.225,20.053c-0.288,2.292 -1.423,4.444 -3.243,5.926c-5.035,4.104 -13.881,3.123 -16.771,-2.91c-0.469,-0.98 -0.76,-1.744 -0.848,-3.13l0,-16.352l5.313,0l0,16.264c0.036,0.27 0.107,0.537 0.209,0.789c0.065,0.164 0.145,0.322 0.237,0.472c1.184,1.945 3.831,2.367 5.853,2.065c1.756,-0.262 3.552,-1.186 3.909,-3.041c0.022,-0.113 0.042,-0.275 0.042,-0.275l0,-16.274l5.312,0l0,16.359c-0.004,0.036 -0.009,0.072 -0.013,0.107Zm-19.362,-14.966c0,0 -0.052,12.442 0,14.777c0.097,4.369 5.876,8.197 11.638,6.698c3.087,-0.803 5.803,-3.256 6.235,-6.691c0,0 0.002,-14.784 0.002,-14.784l-2.312,0l0,14.855c0,0 -0.303,1.815 -1.317,2.862c-1.885,1.947 -5.085,2.345 -7.628,1.638c-1.341,-0.372 -2.606,-1.157 -3.423,-2.29c-0.454,-0.629 -0.77,-1.366 -0.882,-2.2l0,-14.865l-2.313,0Z" style="fill:#ae689d;"/><path d="M80.08,28.382c-0.984,-0.156 -0.935,-1.498 0.197,-1.362c0.845,0.096 1.65,0.043 2.402,-0.214c0.246,-3.1 0.342,-6.119 0.236,-9.028l-2.343,0.623c-0.366,0.091 -0.666,0.009 -0.905,-0.234c-0.703,-0.668 -0.893,-1.336 -0.571,-2.004c0.351,-0.506 1.082,-0.292 0.866,0.331c-0.072,0.275 -0.016,0.565 0.216,0.876c0.077,0.086 0.191,0.108 0.335,0.077l2.304,-0.622c-0.041,-0.962 -0.165,-1.873 -0.355,-2.744c-4.686,-3.502 -1.338,-10.74 3.781,-10.467c5.355,-0.008 8.348,6.109 4.646,9.981l0.374,0.584l2.068,-1.284c0.322,-0.2 0.668,-0.262 1.063,-0.039c1.414,0.908 1.978,2.072 2.048,3.385c0.054,0.735 -0.773,0.735 -0.906,0.078c-0.182,-1.175 -0.639,-2.067 -1.477,-2.568c-0.117,-0.084 -0.235,-0.079 -0.354,0.019l-1.989,1.284c1.188,2.685 1.939,5.582 2.245,8.697c0.393,-0.043 1.07,-0.635 1.91,-1.576c0.294,-0.35 0.613,-0.387 0.964,-0.039c1.059,1.17 1.553,2.306 1.457,3.405c-0.187,1.08 -1.457,0.89 -1.397,-0.058c0.027,-0.53 -0.119,-1.04 -0.394,-1.537c-0.1,-0.179 -0.228,-0.198 -0.394,0c-0.902,0.965 -1.861,1.344 -2.855,1.362c-0.384,0.003 -0.581,-0.184 -0.61,-0.545c-0.509,-4.804 -1.656,-8.356 -3.308,-10.915c-0.237,-0.313 -0.149,-0.579 0.138,-0.817c3.15,-2.569 1.417,-7.861 -3.19,-8.036c-4.41,0.136 -6.104,5.623 -2.914,7.977c0.214,0.157 0.358,0.378 0.433,0.662c0.809,3.788 0.726,8.389 0.276,13.328c-0.024,0.527 -0.212,0.887 -0.61,1.031c-1.013,0.426 -2.157,0.518 -3.387,0.389" style="fill:#ae689d;fill-rule:nonzero;stroke:#ae689d;stroke-width:0.38px;"/><path d="M83.079,7.402c0.096,-0.469 0.63,-0.396 0.563,0.081c-0.135,0.864 -0.121,1.752 0,2.658c0.06,0.455 -0.489,0.499 -0.563,0.088c-0.141,-0.979 -0.156,-1.925 0,-2.827" style="fill:#ae689d;fill-rule:nonzero;stroke:#ae689d;stroke-width:0.38px;"/><path d="M15.625,28.399l0,-10.624l-10.437,0l0,10.624l-5.188,0l0,-24.812l5.25,0l0,9.25l10.25,0l0,-9.25l5.437,0l0,24.812l-5.312,0Zm-14.125,-23.312l0,21.812l2.188,0l0,-10.624l13.437,0l0,10.624l2.312,0l0,-21.812l-2.437,0l0,9.25l-13.25,0l0,-9.25l-2.25,0Z" style="fill:#ae689d;"/><path d="M53.101,3.606l8.82,12l9.273,-12.019l2.744,0l0,24.829l-5.125,0l0,-13.492l-5.838,7.621l-2.143,0l-5.623,-7.567l0,13.438l-5.167,0l0,-24.835c1.019,0.008 2.039,0.017 3.059,0.025Zm9.133,17.439l8.079,-10.546l0,16.417l2.125,0l0,-21.829l-0.507,0l-10.039,13.012l-9.555,-12.999l-0.795,-0.007l0,21.823l2.167,0l0,-16.471l7.877,10.6l0.648,0Z" style="fill:#ae689d;"/><path d="M108.916,3.698c3.179,0.04 6.162,1.883 8.019,4.451l0.477,0.671l-3.682,2.732c-1.177,-1.949 -3.183,-3.564 -5.474,-3.02c-1.106,0.263 -2.118,1.47 -1.6,2.599c1.324,2.89 7.405,2.769 9.883,6.617c0.656,1.019 0.951,2.244 0.907,3.466c-0.071,1.967 -1.004,5.288 -4.708,6.647c-4.287,1.572 -9.537,-0.51 -12.356,-4.354l-0.459,-0.636l3.718,-3.137c1.47,2.501 4.173,4.613 7.063,3.862c1.313,-0.341 2.052,-2.026 1.338,-3.319c-1.226,-2.221 -4.753,-2.658 -6.795,-3.705c-2.243,-1.15 -4.114,-3.359 -3.821,-6.232c0.159,-1.548 0.699,-2.773 1.168,-3.473c1.345,-2.009 3.851,-3.177 6.322,-3.169Zm-0.133,1.501c-2.796,0.04 -5.65,2.443 -5.841,5.093c-0.069,0.96 -0.013,2.215 0.718,3.182c2.278,3.012 7.075,2.599 9.363,5.573c1.126,1.463 1.111,3.794 -0.229,5.08c-2.376,2.278 -7.182,0.878 -9.493,-2.116c0,0 -1.332,1.096 -1.332,1.096c2.723,3.291 7.869,5.077 11.4,2.773c1.465,-0.955 2.328,-2.473 2.551,-4.433c0.097,-0.85 0.052,-2.25 -1.182,-3.576c-2.314,-2.486 -6.477,-2.923 -8.709,-5.1c-0.636,-0.62 -1.035,-1.485 -0.981,-2.373c0.061,-1.017 0.336,-1.837 1.386,-2.641c2.121,-1.623 5.775,-0.701 7.672,1.624l1.213,-0.876c-0.045,-0.055 -0.091,-0.109 -0.137,-0.164c-1.566,-1.822 -3.815,-3.09 -6.217,-3.142c-0.061,-0.001 -0.122,-0.001 -0.182,0Z" style="fill:#ae689d;"/><path d="M126.334,3.587l0,24.792l-5.292,0l0,-24.792l5.292,0Zm-3.792,1.5l0,21.792l2.292,0l0,-21.792l-2.292,0Z" style="fill:#ae689d;"/><path d="M133.788,3.543l8.821,12.001l9.273,-12.02l2.743,0l0,24.829l-5.125,0l0,-13.491l-5.838,7.62l-2.143,0l-5.623,-7.566l0,13.437l-5.167,0l0,-24.835c1.02,0.009 2.039,0.017 3.059,0.025Zm9.134,17.439l8.078,-10.545l0,16.416l2.125,0l0,-21.829l-0.506,0l-10.039,13.013l-9.556,-13l-0.795,-0.006l0,21.822l2.167,0l0,-16.47l7.877,10.599l0.649,0Z" style="fill:#ae689d;"/><path d="M158.803,0.187c0.287,0 0.567,0.074 0.84,0.221c0.274,0.148 0.487,0.358 0.639,0.632c0.153,0.275 0.229,0.561 0.229,0.858c0,0.295 -0.075,0.578 -0.225,0.85c-0.15,0.272 -0.361,0.483 -0.632,0.633c-0.272,0.151 -0.555,0.226 -0.851,0.226c-0.296,0 -0.58,-0.075 -0.851,-0.226c-0.271,-0.15 -0.483,-0.361 -0.634,-0.633c-0.151,-0.272 -0.226,-0.555 -0.226,-0.85c0,-0.297 0.076,-0.583 0.23,-0.858c0.153,-0.274 0.367,-0.484 0.64,-0.632c0.273,-0.147 0.554,-0.221 0.841,-0.221Zm0,0.284c-0.241,0 -0.474,0.061 -0.702,0.184c-0.227,0.123 -0.405,0.299 -0.533,0.528c-0.129,0.229 -0.193,0.467 -0.193,0.715c0,0.246 0.063,0.482 0.189,0.708c0.126,0.226 0.303,0.402 0.529,0.528c0.227,0.126 0.463,0.19 0.71,0.19c0.246,0 0.482,-0.064 0.709,-0.19c0.227,-0.126 0.403,-0.302 0.528,-0.528c0.125,-0.226 0.188,-0.462 0.188,-0.708c0,-0.248 -0.064,-0.486 -0.191,-0.715c-0.128,-0.229 -0.306,-0.405 -0.534,-0.528c-0.228,-0.123 -0.462,-0.184 -0.7,-0.184Zm-0.75,2.372l0,-1.84l0.632,0c0.216,0 0.372,0.017 0.469,0.051c0.097,0.034 0.174,0.093 0.231,0.178c0.057,0.085 0.086,0.174 0.086,0.27c0,0.134 -0.048,0.251 -0.144,0.351c-0.096,0.1 -0.223,0.155 -0.382,0.168c0.065,0.027 0.118,0.059 0.157,0.097c0.074,0.073 0.164,0.194 0.272,0.365l0.224,0.36l-0.363,0l-0.163,-0.29c-0.128,-0.228 -0.232,-0.371 -0.31,-0.428c-0.054,-0.042 -0.134,-0.064 -0.238,-0.064l-0.175,0l0,0.782l-0.296,0Zm0.296,-1.035l0.361,0c0.172,0 0.289,-0.026 0.352,-0.077c0.063,-0.052 0.094,-0.12 0.094,-0.204c0,-0.055 -0.015,-0.104 -0.045,-0.147c-0.03,-0.043 -0.072,-0.075 -0.126,-0.096c-0.054,-0.021 -0.153,-0.032 -0.298,-0.032l-0.338,0l0,0.556Z" style="fill:#ae689d;fill-rule:nonzero;"/><path d="M158.833,0c0.976,0.024 1.85,0.888 1.866,1.867c0.019,1.217 -1.352,2.255 -2.554,1.809c-1.129,-0.418 -1.625,-2.061 -0.766,-3.041c0.36,-0.412 0.91,-0.639 1.454,-0.635Zm-0.296,2.843c-0.005,0.114 -0.104,0.188 -0.231,0.188c0.029,0.012 0.058,0.024 0.087,0.034c0.29,0.101 0.612,0.089 0.895,-0.029c0,0 -0.139,0.006 -0.208,-0.088c-0.163,-0.265 -0.256,-0.688 -0.542,-0.699c0,0 -0.001,0.356 -0.001,0.594Zm0.23,-2.027c0.371,0.01 0.768,0.151 0.868,0.514c0.076,0.27 -0.046,0.577 -0.278,0.743c0,0 -0.09,-0.069 0.037,0.104c0.049,0.067 0.094,0.136 0.139,0.206l0.205,0.331c0.694,-0.816 -0.216,-2.58 -1.528,-1.904c0,0 0.338,0.003 0.557,0.006Zm-0.906,0.271c-0.376,0.454 -0.375,1.18 0.004,1.625c0,0 0.054,-1.692 -0.004,-1.625Zm0.676,0.353l0,0.18c0.193,0 0.468,0.032 0.429,-0.113c-0.034,-0.129 -0.24,-0.067 -0.429,-0.067Z" style="fill:none;"/></g></svg>