<?xml version="1.0" encoding="UTF-8" standalone="no"?><!DOCTYPE svg PUBLIC "-//W3C//DTD SVG 1.1//EN" "http://www.w3.org/Graphics/SVG/1.1/DTD/svg11.dtd"><svg width="100%" height="100%" viewBox="0 0 169 39" version="1.1" xmlns="http://www.w3.org/2000/svg" xmlns:xlink="http://www.w3.org/1999/xlink" xml:space="preserve" xmlns:serif="http://www.serif.com/" style="fill-rule:evenodd;clip-rule:evenodd;stroke-miterlimit:10;"><g id="图层-3" serif:id="图层 3"><path d="M32.9,7.6l3.813,0l0,15.565c0.699,5.477 11.199,5.477 11.75,0l0,-15.565l3.812,0l0,15.565c-1.197,10.311 -18.364,10.394 -19.375,0l0,-15.565Z" style="fill:none;fill-rule:nonzero;stroke:#ae689d;stroke-width:1.5px;"/><path d="M86.867,31.645c-0.984,-0.156 -0.935,-1.498 0.197,-1.362c0.845,0.096 1.65,0.043 2.402,-0.214c0.246,-3.1 0.342,-6.119 0.236,-9.028l-2.343,0.623c-0.366,0.091 -0.666,0.009 -0.905,-0.234c-0.703,-0.668 -0.893,-1.336 -0.571,-2.004c0.351,-0.506 1.082,-0.292 0.866,0.331c-0.072,0.275 -0.016,0.565 0.216,0.876c0.077,0.086 0.191,0.108 0.335,0.077l2.304,-0.622c-0.041,-0.962 -0.165,-1.873 -0.355,-2.744c-4.686,-3.502 -1.338,-10.74 3.781,-10.467c5.355,-0.008 8.348,6.109 4.646,9.981l0.374,0.584l2.068,-1.284c0.322,-0.2 0.668,-0.262 1.063,-0.039c1.414,0.908 1.978,2.072 2.048,3.385c0.054,0.735 -0.773,0.735 -0.906,0.078c-0.182,-1.175 -0.639,-2.067 -1.477,-2.568c-0.117,-0.084 -0.235,-0.079 -0.354,0.019l-1.989,1.284c1.188,2.685 1.939,5.582 2.245,8.697c0.393,-0.043 1.07,-0.635 1.91,-1.576c0.294,-0.35 0.613,-0.387 0.964,-0.039c1.059,1.17 1.553,2.306 1.457,3.405c-0.187,1.08 -1.457,0.89 -1.397,-0.058c0.027,-0.53 -0.119,-1.04 -0.394,-1.537c-0.1,-0.179 -0.228,-0.198 -0.394,0c-0.902,0.965 -1.861,1.344 -2.855,1.362c-0.384,0.003 -0.581,-0.184 -0.61,-0.545c-0.509,-4.804 -1.656,-8.356 -3.308,-10.915c-0.237,-0.313 -0.149,-0.579 0.138,-0.817c3.15,-2.569 1.417,-7.861 -3.19,-8.036c-4.41,0.136 -6.104,5.623 -2.914,7.977c0.214,0.157 0.358,0.378 0.433,0.662c0.809,3.788 0.726,8.389 0.276,13.328c-0.024,0.527 -0.212,0.887 -0.61,1.031c-1.013,0.426 -2.157,0.518 -3.387,0.389" style="fill:#ae689d;fill-rule:nonzero;stroke:#ae689d;stroke-width:0.38px;stroke-linejoin:round;stroke-miterlimit:2;"/><path d="M89.867,10.665c0.096,-0.469 0.63,-0.396 0.563,0.081c-0.135,0.864 -0.121,1.752 0,2.658c0.06,0.455 -0.489,0.499 -0.563,0.088c-0.141,-0.979 -0.156,-1.925 0,-2.827" style="fill:#ae689d;fill-rule:nonzero;stroke:#ae689d;stroke-width:0.38px;stroke-linejoin:round;stroke-miterlimit:2;"/><path d="M7.537,7.6l3.75,0l0,9.25l11.75,0l0,-9.25l3.937,0l0,23.312l-3.812,0l0,-10.624l-11.937,0l0,10.624l-3.688,0l0,-23.312Z" style="fill:none;fill-rule:nonzero;stroke:#ae689d;stroke-width:1.5px;"/><path d="M57.579,7.6l0,23.329l3.667,0l0,-14.954l6.75,9.083l1.396,0l6.958,-9.083l0,14.954l3.625,0l0,-23.329l-1.625,0l-9.656,12.516l-9.188,-12.5l-1.927,-0.016Z" style="fill:none;fill-rule:nonzero;stroke:#ae689d;stroke-width:1.5px;"/><path d="M123.162,11.919l-2.429,1.802c-2.038,-3.408 -7.758,-3.957 -8.15,0c-0.274,4.193 11.363,3.723 10.892,10.893c-0.979,8.463 -11.441,7.679 -15.75,1.645l2.507,-2.115c2.508,4.31 9.795,5.054 9.639,0.47c-0.196,-5.407 -11.715,-3.409 -10.893,-11.128c1.45,-7.248 9.952,-7.562 14.184,-1.567Z" style="fill:none;fill-rule:nonzero;stroke:#ae689d;stroke-width:1.5px;"/><rect x="128.579" y="7.6" width="3.792" height="23.292" style="fill:none;stroke:#ae689d;stroke-width:1.5px;"/><path d="M138.267,7.537l0,23.329l3.667,0l0,-14.954l6.75,9.083l1.396,0l6.958,-9.083l0,14.954l3.625,0l0,-23.329l-1.625,0l-9.656,12.516l-9.188,-12.5l-1.927,-0.016Z" style="fill:none;fill-rule:nonzero;stroke:#ae689d;stroke-width:1.5px;"/></g></svg>