<?xml version="1.0" encoding="UTF-8" standalone="no"?><!DOCTYPE svg PUBLIC "-//W3C//DTD SVG 1.1//EN" "http://www.w3.org/Graphics/SVG/1.1/DTD/svg11.dtd"><svg width="100%" height="100%" viewBox="0 0 500 500" version="1.1" xmlns="http://www.w3.org/2000/svg" xmlns:xlink="http://www.w3.org/1999/xlink" xml:space="preserve" xmlns:serif="http://www.serif.com/" style="fill-rule:evenodd;clip-rule:evenodd;stroke-linejoin:round;stroke-miterlimit:2;"><g id="图层-3" serif:id="图层 3"><path d="M250,25.476c123.918,0 224.524,100.606 224.524,224.524c0,123.918 -100.606,224.524 -224.524,224.524c-123.918,0 -224.524,-100.606 -224.524,-224.524c0,-123.918 100.606,-224.524 224.524,-224.524Zm-86.904,364.999c-11.183,-1.773 -10.626,-17.024 2.239,-15.479c9.603,1.091 18.751,0.489 27.297,-2.432c2.796,-35.23 3.887,-69.539 2.682,-102.599l-26.627,7.08c-4.159,1.034 -7.569,0.103 -10.285,-2.659c-7.989,-7.592 -10.148,-15.183 -6.489,-22.775c3.989,-5.75 12.297,-3.318 9.842,3.762c-0.818,3.125 -0.182,6.421 2.455,9.955c0.875,0.978 2.17,1.228 3.807,0.875l26.184,-7.068c-0.466,-10.933 -1.875,-21.286 -4.035,-31.185c-53.254,-39.798 -15.205,-122.055 42.97,-118.953c60.857,-0.09 94.871,69.427 52.799,113.43l4.251,6.637l23.502,-14.592c3.659,-2.273 7.591,-2.978 12.08,-0.443c16.07,10.319 22.479,23.547 23.275,38.469c0.614,8.353 -8.785,8.353 -10.296,0.886c-2.069,-13.353 -7.262,-23.49 -16.786,-29.184c-1.33,-0.955 -2.671,-0.898 -4.023,0.216l-22.604,14.592c13.501,30.514 22.036,63.437 25.513,98.838c4.467,-0.489 12.161,-7.217 21.707,-17.911c3.341,-3.978 6.966,-4.398 10.955,-0.443c12.035,13.296 17.649,26.207 16.558,38.696c-2.125,12.274 -16.558,10.115 -15.876,-0.659c0.307,-6.023 -1.352,-11.819 -4.478,-17.467c-1.136,-2.035 -2.591,-2.25 -4.477,0c-10.251,10.967 -21.15,15.274 -32.446,15.478c-4.364,0.034 -6.603,-2.091 -6.932,-6.193c-5.785,-54.596 -18.82,-94.963 -37.594,-124.045c-2.694,-3.557 -1.694,-6.58 1.568,-9.284c35.798,-29.196 16.103,-89.337 -36.253,-91.326c-50.118,1.545 -69.369,63.903 -33.116,90.655c2.432,1.784 4.068,4.296 4.92,7.523c9.194,43.049 8.251,95.338 3.137,151.467c-0.273,5.989 -2.409,10.081 -6.932,11.717c-11.513,4.841 -24.514,5.887 -38.492,4.421Zm34.088,-238.433c1.091,-5.33 7.16,-4.501 6.398,0.92c-1.534,9.819 -1.375,19.911 0,30.207c0.682,5.171 -5.557,5.671 -6.398,1c-1.602,-11.125 -1.773,-21.876 0,-32.127Z" style="fill:#ae689d;"/></g></svg>