<?xml version="1.0" encoding="UTF-8" standalone="no"?>
<!DOCTYPE svg PUBLIC "-//W3C//DTD SVG 1.1//EN" "http://www.w3.org/Graphics/SVG/1.1/DTD/svg11.dtd">
<svg width="100%" height="100%" viewBox="0 0 1182 1182" version="1.1" xmlns="http://www.w3.org/2000/svg" xmlns:xlink="http://www.w3.org/1999/xlink" xml:space="preserve" xmlns:serif="http://www.serif.com/" style="fill-rule:evenodd;clip-rule:evenodd;stroke-linejoin:round;stroke-miterlimit:2;">
    <g id="图层-4" serif:id="图层 4" transform="matrix(4.16667,0,0,4.16667,0,0)">
        <g transform="matrix(0.252641,0,0,0.254243,0,0)">
            <rect x="0" y="0" width="1122.01" height="1114.94" style="fill:rgb(21,21,21);"/>
        </g>
        <g transform="matrix(1.31132,0,0,1.31132,95.4284,163.664)">
            <path d="M0,-33.449L-5.879,0L-8.515,0L-7.452,-6.044L-23.753,-28.866L-28.78,0L-31.38,0L-25.49,-33.449L-24.442,-33.449L-6.942,-8.948L-2.637,-33.449L0,-33.449Z" style="fill:white;fill-rule:nonzero;"/>
        </g>
        <g transform="matrix(-1.31132,0,0,1.31132,190.65,119.801)">
            <path d="M3.265,33.449L5.896,33.449L0.017,0L-2.631,0L3.265,33.449Z" style="fill:white;fill-rule:nonzero;"/>
        </g>
        <g transform="matrix(1.31132,0,0,1.31132,128.425,119.801)">
            <path d="M0,33.449L-23.339,33.449L-22.917,31.04L-3.717,31.04L-17.834,0L6.087,0L5.663,2.409L-14.111,2.409L0,33.449Z" style="fill:white;fill-rule:nonzero;"/>
        </g>
        <g transform="matrix(0.24,0,0,0.24,0.03515,-0.2838)">
            <path d="M726.539,500.354L740.903,500.354L708.677,683.114L578.17,683.114L610.291,500.356L610.29,500.354L726.539,500.354ZM620.659,522.932L594.845,669.951L688.177,669.951L620.659,522.932ZM630.681,513.517L698.384,660.731L724.228,513.517L630.681,513.517Z" style="fill:white;fill-rule:nonzero;"/>
        </g>
        <g transform="matrix(0.24,0,0,0.24,0.03515,-0.2838)">
            <path d="M172.748,683.114L158.542,683.114L188.345,513.519L157.493,513.519L159.821,500.357L190.658,500.357L190.659,500.354L205.056,500.354L172.748,683.114Z" style="fill:white;fill-rule:nonzero;"/>
        </g>
        <g transform="matrix(0.24,0,0,0.24,0.03515,-0.2838)">
            <path d="M843.745,683.115L829.337,683.115L861.42,500.355L868.064,500.355L923.2,606.304L1015.66,500.355L1022.35,500.355L992.482,669.951L1023.32,669.951L1021,683.114L990.164,683.114L990.164,683.115L975.958,683.115L1001.89,536.094L923.473,625.428L918.009,625.428L870.818,529.073L843.745,683.115Z" style="fill:white;fill-rule:nonzero;"/>
        </g>
    </g>
</svg>
