<?xml version="1.0" standalone="no"?>
<!DOCTYPE svg PUBLIC "-//W3C//DTD SVG 20010904//EN"
 "http://www.w3.org/TR/2001/REC-SVG-20010904/DTD/svg10.dtd">
<svg version="1.0" xmlns="http://www.w3.org/2000/svg"
 width="700.000000pt" height="700.000000pt" viewBox="0 0 700.000000 700.000000"
 preserveAspectRatio="xMidYMid meet">
<metadata>
Created by potrace 1.11, written by Peter Selinger 2001-2013
</metadata>
<g transform="translate(0.000000,700.000000) scale(0.100000,-0.100000)"
fill="#000000" stroke="none">
<path d="M3417 6644 c-1 -1 -51 -5 -112 -8 -145 -9 -199 -14 -265 -26 -30 -5
-71 -12 -90 -15 -249 -39 -548 -136 -810 -262 -675 -326 -1208 -875 -1513
-1558 -98 -220 -193 -528 -221 -721 -4 -22 -8 -51 -11 -64 -3 -14 -7 -49 -11
-78 -3 -29 -7 -63 -9 -74 -7 -34 -18 -245 -18 -338 0 -84 11 -292 18 -340 2
-14 6 -50 10 -80 3 -30 8 -62 10 -70 3 -8 7 -33 10 -55 2 -22 7 -49 9 -60 3
-11 11 -51 20 -90 60 -277 186 -599 336 -862 51 -88 181 -287 220 -336 397
-499 867 -851 1400 -1047 273 -100 467 -147 764 -185 211 -26 523 -22 761 10
85 11 107 15 185 30 41 9 85 17 97 20 38 7 215 55 258 70 216 75 261 93 435
178 153 74 410 232 507 311 10 8 61 49 113 92 52 42 156 139 231 215 369 375
626 812 778 1324 22 73 61 236 66 270 1 11 8 48 14 82 6 34 14 83 16 110 3 26
7 58 9 69 22 115 23 502 1 685 -7 55 -17 133 -20 149 -1 8 -6 35 -10 60 -4 25
-20 101 -37 170 -16 69 -31 132 -33 140 -2 8 -22 71 -45 140 -269 793 -841
1448 -1585 1815 -210 103 -481 204 -648 240 -12 2 -53 11 -92 20 -38 8 -90 18
-115 21 -25 3 -47 7 -50 9 -3 2 -34 6 -70 10 -36 4 -73 9 -82 10 -42 9 -414
25 -421 19z m-23 -1178 c158 -19 317 -78 446 -166 186 -128 334 -334 389 -540
27 -101 32 -140 32 -241 1 -216 -69 -406 -213 -580 -21 -26 -38 -52 -38 -58 0
-6 12 -28 27 -49 l27 -38 172 107 c174 108 200 121 244 124 45 4 114 -37 211
-123 40 -35 111 -135 137 -192 46 -103 71 -249 50 -296 -15 -32 -57 -45 -90
-28 -28 14 -36 34 -64 149 -26 109 -70 192 -140 262 -85 86 -95 87 -196 21
-46 -30 -120 -78 -165 -107 -46 -30 -83 -57 -83 -61 0 -4 18 -52 41 -106 108
-260 218 -645 263 -922 13 -79 34 -223 42 -293 3 -30 8 -56 9 -57 6 -7 71 29
110 61 21 17 80 73 130 124 49 51 103 97 118 102 38 15 71 -4 128 -70 112
-132 181 -268 195 -389 3 -30 7 -57 7 -60 1 -3 -2 -28 -6 -57 -13 -87 -88
-135 -161 -102 -35 16 -53 61 -60 152 -9 106 -56 228 -89 227 -6 -1 -43 -30
-81 -65 -116 -108 -272 -174 -404 -170 -82 2 -89 13 -112 190 -22 162 -24 178
-40 275 -14 89 -19 121 -26 150 -3 14 -8 36 -10 49 -3 12 -12 53 -20 90 -22
94 -23 99 -28 121 -62 278 -238 713 -370 913 -58 88 -54 102 47 208 142 148
194 265 204 454 6 125 -14 229 -66 340 -146 313 -507 493 -841 420 -398 -87
-656 -512 -549 -905 35 -131 123 -262 222 -335 61 -44 74 -71 102 -215 7 -35
23 -137 30 -190 3 -25 7 -61 10 -80 7 -54 14 -127 21 -225 3 -49 7 -115 10
-145 4 -72 5 -627 0 -705 -2 -33 -7 -116 -11 -185 -3 -69 -8 -145 -10 -170 -2
-25 -7 -85 -10 -135 -12 -181 -24 -258 -46 -294 -50 -83 -300 -137 -559 -121
-63 4 -124 30 -141 61 -23 43 -19 85 11 120 l28 34 163 2 c90 0 173 3 184 6
11 3 40 10 64 15 24 6 47 14 51 19 4 4 11 49 14 98 3 50 9 128 12 175 3 47 8
117 10 155 3 39 7 280 9 538 l4 467 -27 -6 c-15 -4 -85 -22 -157 -41 -166 -45
-163 -44 -210 -52 -61 -10 -101 7 -152 63 -98 110 -117 235 -48 310 30 32 83
36 109 7 14 -15 16 -30 11 -78 -6 -50 -4 -66 14 -102 12 -23 29 -45 37 -48 15
-5 352 80 386 98 18 10 18 8 3 174 -5 51 -20 146 -40 243 -2 13 -17 33 -32 44
-15 12 -56 50 -90 86 -215 221 -288 536 -197 849 50 175 129 308 259 439 212
215 463 298 789 260z m-554 -561 c8 -10 9 -34 4 -82 -9 -88 -9 -227 0 -329 3
-44 4 -88 0 -97 -9 -24 -60 -22 -73 2 -35 64 -35 409 -1 491 14 33 49 41 70
15z"/>
</g>
</svg>
